<?xml version="1.0" encoding="UTF-8" standalone="no"?>
<!-- Created with Inkscape (http://www.inkscape.org/) -->

<svg
   width="500"
   height="500"
   viewBox="0 0 132.29166 132.29167"
   version="1.1"
   id="svg1"
   xml:space="preserve"
   xmlns:inkscape="http://www.inkscape.org/namespaces/inkscape"
   xmlns:sodipodi="http://sodipodi.sourceforge.net/DTD/sodipodi-0.dtd"
   xmlns="http://www.w3.org/2000/svg"
   xmlns:svg="http://www.w3.org/2000/svg"><sodipodi:namedview
     id="namedview1"
     pagecolor="#ffffff"
     bordercolor="#000000"
     borderopacity="0.25"
     inkscape:showpageshadow="2"
     inkscape:pageopacity="0.0"
     inkscape:pagecheckerboard="0"
     inkscape:deskcolor="#d1d1d1"
     inkscape:document-units="mm" /><defs
     id="defs1" /><g
     inkscape:label="Ebene 1"
     inkscape:groupmode="layer"
     id="layer1"><path
       style="fill:#000000;stroke-width:0.924692"
       d="m 64.034332,131.74513 c -0.872833,-0.40016 -1.99501,-1.48838 -2.457897,-2.38351 -0.451822,-0.87373 -0.690235,-7.31866 -0.416969,-11.2714 0.195718,-2.83098 0.271882,-3.17298 0.885857,-3.97796 0.949946,-1.24544 2.419652,-1.95029 4.068601,-1.95127 1.477187,-8.6e-4 2.43762,0.40244 3.525714,1.48054 1.297716,1.28579 1.367794,1.72668 1.363416,8.57787 -0.0036,6.07559 -0.02417,6.34298 -0.550475,7.26317 -0.300553,0.52546 -0.96552,1.29289 -1.477716,1.7054 -0.798208,0.64285 -1.165232,0.76027 -2.568912,0.82183 -1.017271,0.0446 -1.915684,-0.0557 -2.371619,-0.26467 z M 21.558063,114.1149 c -1.384607,-0.48393 -2.332256,-1.28023 -2.886772,-2.42571 -0.682611,-1.41007 -0.684715,-3.42419 -0.0048,-4.53952 0.719952,-1.18092 7.695073,-8.224312 9.001652,-9.089748 2.02023,-1.33814 5.049624,-0.849635 6.479847,1.044911 0.851943,1.128517 1.235298,2.605227 1.030632,3.970017 -0.144306,0.96235 -0.453602,1.45911 -1.96878,3.16211 -2.279905,2.56252 -7.428675,7.48899 -8.074629,7.726 -1.037896,0.38081 -2.718173,0.45218 -3.577199,0.15194 z m 86.147717,0.0797 c -1.00866,-0.19342 -1.47561,-0.58942 -5.56993,-4.72361 -2.642126,-2.66786 -4.617352,-4.86765 -4.831989,-5.38135 -0.701876,-1.67983 -0.303127,-3.92243 0.933098,-5.247723 1.433999,-1.537346 4.342371,-2.014746 6.043611,-0.992055 1.2346,0.742167 8.90249,8.582128 9.38193,9.592438 1.18616,2.49968 -0.47026,6.00026 -3.19763,6.75766 -1.04301,0.28964 -1.22248,0.28929 -2.75909,-0.006 z M 60.402448,96.208686 C 53.341326,94.932935 46.133673,90.354002 41.589101,84.256799 39.727032,81.758568 37.667752,77.529702 36.894859,74.616876 35.209218,68.264203 35.518503,61.207178 37.72744,55.619154 41.704784,45.557519 50.44913,38.357096 60.905166,36.533714 c 2.712305,-0.472984 7.743299,-0.466345 10.496951,0.01385 6.239919,1.088151 12.238623,4.299716 16.465504,8.815253 2.470115,2.638784 3.657945,4.297396 5.101939,7.124019 2.52777,4.948144 3.31673,8.310431 3.31839,14.14192 9.26e-4,3.911053 -0.315214,5.955474 -1.457415,9.419332 C 91.409667,86.42213 82.189639,94.339451 71.322682,96.234496 68.703065,96.69131 62.99913,96.677838 60.402448,96.208699 Z M 71.374071,85.95522 c 2.27418,-0.613313 5.702937,-2.389852 7.517887,-3.895246 3.252365,-2.697624 5.795806,-6.754943 6.82746,-10.891237 0.693867,-2.781987 0.561948,-8.027536 -0.26801,-10.656425 -2.31127,-7.321025 -8.519487,-12.777085 -16.025853,-14.084262 -2.311619,-0.402551 -6.619354,-0.160006 -8.932067,0.502917 -6.16248,1.766429 -11.39653,6.733189 -13.487102,12.798348 -3.359148,9.745536 0.942177,20.197583 10.226656,24.850404 1.331077,0.667058 3.826833,1.470684 5.700327,1.835491 1.249117,0.243229 6.994063,-0.06985 8.440702,-0.45999 z M 3.6751075,71.165198 C 2.4728339,70.789295 1.4759602,69.875928 0.88666352,68.610363 -0.38163537,65.88657 0.6355269,63.098826 3.3591602,61.833869 c 0.8695374,-0.403839 1.6548174,-0.45511 7.0436718,-0.459885 6.7385,-0.006 7.047496,0.05554 8.683047,1.728422 2.090632,2.138353 1.570127,5.763887 -1.085834,7.563206 -0.900758,0.610227 -0.917643,0.611755 -7.282553,0.659214 -3.508829,0.02616 -6.6778985,-0.04568 -7.0423845,-0.159628 z m 111.5379825,-0.0144 c -2.97236,-0.892181 -4.32884,-4.714758 -2.62595,-7.399946 0.50207,-0.791683 1.09614,-1.328261 1.94913,-1.760505 1.21695,-0.616669 1.27642,-0.621697 7.29036,-0.616368 6.8209,0.006 7.33449,0.110138 8.80458,1.784468 1.67406,1.906646 1.67406,4.544646 0,6.451293 -1.47262,1.677212 -1.98705,1.781064 -8.73528,1.763439 -3.29676,-0.0087 -6.30404,-0.108683 -6.68284,-0.222381 z M 28.803587,35.38227 c -0.798437,-0.209908 -1.772954,-1.050838 -5.292847,-4.567344 -2.372822,-2.370537 -4.54681,-4.695403 -4.831079,-5.16637 -0.574673,-0.952081 -0.699195,-2.914571 -0.259026,-4.082093 0.324546,-0.860842 1.586471,-2.198099 2.553904,-2.706387 1.000999,-0.525922 3.210068,-0.497285 4.274999,0.05542 0.467384,0.242575 2.796333,2.38758 5.17542,4.766678 4.485042,4.485034 4.865968,5.03281 4.855325,6.98187 -0.0048,0.82383 -0.782935,2.688396 -1.413483,3.385681 -1.057451,1.169338 -3.369454,1.77782 -5.063213,1.332545 z m 72.418763,0.187935 c -0.13457,-0.0509 -0.5454,-0.1588 -0.91299,-0.239795 -0.942744,-0.207734 -2.386533,-1.54976 -2.912257,-2.707004 -0.541179,-1.191277 -0.580566,-2.778586 -0.09766,-3.934454 0.448334,-1.073003 8.788507,-9.512202 9.765407,-9.881343 1.05412,-0.398322 3.39334,-0.362085 4.2119,0.06524 1.81881,0.949516 2.88637,2.83232 2.7415,4.835068 -0.087,1.201851 -0.25349,1.602881 -1.14662,2.760544 -1.34395,1.741996 -7.85656,8.093049 -8.79831,8.580051 -0.73692,0.381076 -2.41226,0.687633 -2.85102,0.521689 z M 64.523653,20.509423 c -1.03501,-0.322982 -2.43376,-1.543966 -2.903995,-2.534919 -0.337739,-0.711734 -0.398893,-1.840087 -0.398893,-7.360373 0,-7.2667779 -0.006,-7.2384503 1.690608,-8.7707378 1.173217,-1.05993756 1.77329,-1.24135544 3.655612,-1.10519963 1.632893,0.1181119 2.633916,0.71585683 3.727879,2.22603193 l 0.712219,0.9831889 v 6.5305746 c 0,6.365053 -0.01443,6.557906 -0.569477,7.608853 -1.018485,1.92847 -3.81993,3.076043 -5.913953,2.422581 z"
       id="path1" /></g></svg>
