<?xml version="1.0" encoding="UTF-8" standalone="no"?>
<!-- Created with Inkscape (http://www.inkscape.org/) -->

<svg
   width="500"
   height="500"
   viewBox="0 0 132.29166 132.29167"
   version="1.1"
   id="svg1"
   xml:space="preserve"
   inkscape:export-filename="darkmode_icon.svg"
   inkscape:export-xdpi="96"
   inkscape:export-ydpi="96"
   xmlns:inkscape="http://www.inkscape.org/namespaces/inkscape"
   xmlns:sodipodi="http://sodipodi.sourceforge.net/DTD/sodipodi-0.dtd"
   xmlns="http://www.w3.org/2000/svg"
   xmlns:svg="http://www.w3.org/2000/svg"><sodipodi:namedview
     id="namedview1"
     pagecolor="#ffffff"
     bordercolor="#000000"
     borderopacity="0.25"
     inkscape:showpageshadow="2"
     inkscape:pageopacity="0.0"
     inkscape:pagecheckerboard="0"
     inkscape:deskcolor="#d1d1d1"
     inkscape:document-units="mm" /><defs
     id="defs1" /><g
     inkscape:label="Ebene 1"
     inkscape:groupmode="layer"
     id="layer1"><path
       style="fill:#000000;stroke-width:0.911498"
       d="M 64.339462,123.60805 C 55.321313,122.53997 50.154764,121.07607 43.080977,117.58463 37.114626,114.63981 31.819748,110.82439 27.107092,106.07407 17.814718,96.707442 12.028835,84.655166 10.252639,70.965453 9.8117294,67.567177 9.8796022,59.590704 10.379361,56.074553 12.824034,38.874384 22.167058,23.882672 36.475236,14.201391 c 2.142106,-1.449399 9.832931,-5.3859141 11.890341,-6.086014 1.799164,-0.6122237 3.206808,-0.5787491 4.149038,0.098665 0.859532,0.6179625 1.736076,2.126591 1.736076,2.987981 0,0.300215 -0.430133,2.07512 -0.955848,3.944233 -1.901518,6.760596 -2.421504,11.648665 -1.965895,18.480248 0.325819,4.885474 0.861319,7.925274 2.099072,11.915462 5.603246,18.06338 19.983309,31.258177 38.654131,35.468092 3.765151,0.84897 7.955329,1.16868 12.852609,0.980653 4.80853,-0.184621 7.54509,-0.597755 11.51474,-1.738364 3.83375,-1.101559 5.84191,-1.275156 6.90823,-0.59719 1.64243,1.04426 2.03089,2.872583 1.16322,5.474808 -0.72509,2.174566 -4.13408,8.901329 -5.82854,11.501102 -9.24103,14.178333 -24.245669,23.924933 -40.643568,26.400923 -3.106452,0.46906 -11.59963,0.82593 -13.70938,0.57606 z m 9.079884,-7.8503 c 4.27545,-0.29428 7.393923,-0.92113 11.635609,-2.3389 5.804713,-1.94023 12.028408,-5.36281 16.757085,-9.21516 2.35897,-1.92181 6.76235,-6.493403 8.46008,-8.783268 1.39751,-1.884947 3.58155,-5.351006 3.87359,-6.147379 0.18521,-0.505046 0.56277,-0.518878 -4.04647,0.14824 -3.12497,0.452294 -12.241214,0.376339 -15.493467,-0.129087 C 83.916642,87.631022 73.470433,83.108766 65.687794,76.773351 62.656178,74.305481 57.838943,69.354572 55.884196,66.697705 48.435992,56.574191 44.70711,46.649584 43.659848,34.161927 c -0.276603,-3.298201 -0.163391,-8.047593 0.268377,-11.258972 0.125332,-0.932195 0.300779,-2.342125 0.389879,-3.13318 l 0.16201,-1.43828 -1.179985,0.689074 c -3.503874,2.046151 -6.418292,4.308319 -9.67654,7.510908 -5.47214,5.378668 -7.91675,8.7064 -10.852703,14.773239 -6.606777,13.652229 -6.982801,28.882739 -1.06462,43.121411 2.558984,6.156707 6.209525,11.533398 11.199593,16.495303 8.244438,8.19791 17.383961,12.75851 29.271724,14.60654 3.19713,0.49702 6.406044,0.5626 11.241763,0.22978 z"
       id="path1" /></g></svg>
