<?xml version="1.0" encoding="UTF-8" standalone="no"?>
<!-- Created with Inkscape (http://www.inkscape.org/) -->

<svg
   width="500"
   height="500"
   viewBox="0 0 132.29166 132.29167"
   version="1.1"
   id="svg1"
   xml:space="preserve"
   xmlns:inkscape="http://www.inkscape.org/namespaces/inkscape"
   xmlns:sodipodi="http://sodipodi.sourceforge.net/DTD/sodipodi-0.dtd"
   xmlns="http://www.w3.org/2000/svg"
   xmlns:svg="http://www.w3.org/2000/svg"><sodipodi:namedview
     id="namedview1"
     pagecolor="#ffffff"
     bordercolor="#000000"
     borderopacity="0.25"
     inkscape:showpageshadow="2"
     inkscape:pageopacity="0.0"
     inkscape:pagecheckerboard="0"
     inkscape:deskcolor="#d1d1d1"
     inkscape:document-units="mm"
     showgrid="false" /><defs
     id="defs1" /><g
     inkscape:label="Ebene 1"
     inkscape:groupmode="layer"
     id="layer1"><path
       style="fill:#000000"
       d="m 62.927177,115.33645 -1.32532,-1.42951 V 92.040717 70.174495 h -20.27252 -20.27252 l -1.32532,-1.429511 c -1.6891,-1.821886 -1.6891,-4.054993 0,-5.876878 l 1.32532,-1.429511 h 20.27252 20.27252 V 39.572373 17.70615 l 1.32532,-1.42951 c 1.6891,-1.821886 3.75945,-1.821886 5.44855,0 l 1.32532,1.42951 v 21.866223 21.866222 h 20.27253 20.272523 l 1.32532,1.429511 c 1.6891,1.821885 1.6891,4.054992 0,5.876878 l -1.32532,1.429511 H 89.973577 69.701047 v 21.866222 21.866223 l -1.32532,1.42951 c -0.72893,0.78623 -1.95485,1.42951 -2.72427,1.42951 -0.76943,0 -1.99535,-0.64328 -2.72428,-1.42951 z"
       id="path1" /></g></svg>
